<?xml version="1.0" encoding="UTF-8"?>
<!DOCTYPE svg PUBLIC "-//W3C//DTD SVG 1.1//EN" "http://www.w3.org/Graphics/SVG/1.1/DTD/svg11.dtd">
<!-- Creator: CorelDRAW 2020 (64-Bit) -->
<svg xmlns="http://www.w3.org/2000/svg" xml:space="preserve" width="7.1966mm" height="2.1166mm" version="1.1" style="shape-rendering:geometricPrecision; text-rendering:geometricPrecision; image-rendering:optimizeQuality; fill-rule:evenodd; clip-rule:evenodd"
viewBox="0 0 719.66 211.66"
 xmlns:xlink="http://www.w3.org/1999/xlink"
 xmlns:xodm="http://www.corel.com/coreldraw/odm/2003"
 aria-hidden="true"
 focusable="false"
 data-prefix="fas"
 data-icon="arrows-alt"
 role="img">
 <defs>
  <style type="text/css">
   <![CDATA[
    .fil1 {fill:#666666}
    .fil0 {fill:#666666;fill-rule:nonzero}
   ]]>
  </style>
 </defs>
 <g id="Capa_x0020_1">
  <metadata id="CorelCorpID_0Corel-Layer"/>
  <g id="_1127281488">
   <path class="fil0" d="M398.1 177.62l-31.51 31.51c-3.72,3.73 -9.78,3.73 -13.5,0l-31.51 -31.51c-6.02,-6.01 -1.75,-16.3 6.75,-16.3l20.36 0.01 -0.01 -40.11 -40.11 0 0 20.36c0,8.5 -10.28,12.77 -16.3,6.75l-31.5 -31.52c-3.73,-3.72 -3.73,-9.78 0,-13.5l31.51 -31.51c6.01,-6.02 16.3,-1.75 16.3,6.75l-0.01 20.38 40.11 0 0 -40.11 -20.38 0c-8.5,0 -12.77,-10.29 -6.75,-16.3l31.51 -31.51c3.72,-3.73 9.78,-3.73 13.5,0l31.51 31.51c6.02,6.01 1.76,16.3 -6.75,16.3l-20.36 0 0 40.11 40.12 0 0 -20.36c0,-8.5 10.29,-12.77 16.3,-6.75l31.51 31.51c3.73,3.72 3.73,9.78 0,13.5l-31.52 31.52c-6.01,6.02 -16.3,1.75 -16.3,-6.75l0.01 -20.38 -40.11 0 0 40.11 20.38 0c8.5,0 12.77,10.28 6.75,16.3l0 -0.01z"/>
  </g>
  <circle class="fil1" cx="157.01" cy="60.02" r="16.54"/>
  <circle class="fil1" cx="157.01" cy="110.07" r="16.54"/>
  <circle class="fil1" cx="157.01" cy="160.12" r="16.54"/>
  <circle class="fil1" cx="562.61" cy="60.02" r="16.54"/>
  <circle class="fil1" cx="562.61" cy="110.07" r="16.54"/>
  <circle class="fil1" cx="562.61" cy="160.12" r="16.54"/>
  <circle class="fil1" cx="218.4" cy="60.02" r="16.54"/>
  <circle class="fil1" cx="218.4" cy="110.07" r="16.54"/>
  <circle class="fil1" cx="218.4" cy="160.12" r="16.54"/>
  <circle class="fil1" cx="501.24" cy="60.02" r="16.54"/>
  <circle class="fil1" cx="501.24" cy="110.07" r="16.54"/>
  <circle class="fil1" cx="501.24" cy="160.12" r="16.54"/>
  <circle class="fil1" cx="623.98" cy="60.02" r="16.54"/>
  <circle class="fil1" cx="623.98" cy="110.07" r="16.54"/>
  <circle class="fil1" cx="623.98" cy="160.12" r="16.54"/>
  <circle class="fil1" cx="685.35" cy="60.02" r="16.54"/>
  <circle class="fil1" cx="685.35" cy="110.07" r="16.54"/>
  <circle class="fil1" cx="685.35" cy="160.12" r="16.54"/>
  <circle class="fil1" cx="95.62" cy="60.02" r="16.54"/>
  <circle class="fil1" cx="95.62" cy="110.07" r="16.54"/>
  <circle class="fil1" cx="95.62" cy="160.12" r="16.54"/>
  <circle class="fil1" cx="34.23" cy="60.02" r="16.54"/>
  <circle class="fil1" cx="34.23" cy="110.07" r="16.54"/>
  <circle class="fil1" cx="34.23" cy="160.12" r="16.54"/>
 </g>
</svg>
