<?xml version="1.0" encoding="UTF-8"?>
<!DOCTYPE svg PUBLIC "-//W3C//DTD SVG 1.1//EN" "http://www.w3.org/Graphics/SVG/1.1/DTD/svg11.dtd">
<!-- Creator: CorelDRAW 2020 (64-Bit) -->
<svg xmlns="http://www.w3.org/2000/svg" xml:space="preserve" width="2.5mm" height="7mm" version="1.1" style="shape-rendering:geometricPrecision; text-rendering:geometricPrecision; image-rendering:optimizeQuality; fill-rule:evenodd; clip-rule:evenodd"
viewBox="0 0 250 700"
 xmlns:xlink="http://www.w3.org/1999/xlink"
 xmlns:xodm="http://www.corel.com/coreldraw/odm/2003">
 <defs>
  <style type="text/css">
   <![CDATA[
    .fil1 {fill:white}
    .fil0 {fill:white;fill-rule:nonzero}
   ]]>
  </style>
 </defs>
 <g id="Capa_x0020_1">
  <metadata id="CorelCorpID_0Corel-Layer"/>
  <g id="_1126164880">
   <path class="fil0" d="M190.55 317.29l31.51 31.51c3.73,3.72 3.73,9.78 0,13.5l-31.51 31.51c-6.01,6.02 -16.3,1.75 -16.3,-6.75l0.01 -20.36 -40.11 0.01 0 40.11 20.36 0c8.5,0 12.77,10.28 6.75,16.3l-31.52 31.5c-3.72,3.73 -9.78,3.73 -13.5,0l-31.51 -31.51c-6.02,-6.01 -1.75,-16.3 6.75,-16.3l20.38 0.01 0 -40.11 -40.11 0 0 20.38c0,8.5 -10.29,12.77 -16.3,6.75l-31.51 -31.51c-3.73,-3.72 -3.73,-9.78 0,-13.5l31.51 -31.51c6.01,-6.02 16.3,-1.76 16.3,6.75l0 20.36 40.11 0 0 -40.12 -20.36 0c-8.5,0 -12.77,-10.29 -6.75,-16.3l31.51 -31.51c3.72,-3.73 9.78,-3.73 13.5,0l31.52 31.52c6.02,6.01 1.75,16.3 -6.75,16.3l-20.38 -0.01 0 40.11 40.11 0 0 -20.38c0,-8.5 10.28,-12.77 16.3,-6.75l-0.01 0z"/>
  </g>
  <circle class="fil1" transform="matrix(2.64845E-14 -1 1 2.64845E-14 72.95 558.38)" r="16.54"/>
  <circle class="fil1" transform="matrix(2.64845E-14 -1 1 2.64845E-14 123 558.38)" r="16.54"/>
  <circle class="fil1" transform="matrix(2.64845E-14 -1 1 2.64845E-14 173.05 558.38)" r="16.54"/>
  <circle class="fil1" transform="matrix(2.64845E-14 -1 1 2.64845E-14 72.95 152.78)" r="16.54"/>
  <circle class="fil1" transform="matrix(2.64845E-14 -1 1 2.64845E-14 123 152.78)" r="16.54"/>
  <circle class="fil1" transform="matrix(2.64845E-14 -1 1 2.64845E-14 173.05 152.78)" r="16.54"/>
  <circle class="fil1" transform="matrix(2.64845E-14 -1 1 2.64845E-14 72.95 496.99)" r="16.54"/>
  <circle class="fil1" transform="matrix(2.64845E-14 -1 1 2.64845E-14 123 496.99)" r="16.54"/>
  <circle class="fil1" transform="matrix(2.64845E-14 -1 1 2.64845E-14 173.05 496.99)" r="16.54"/>
  <circle class="fil1" transform="matrix(2.64845E-14 -1 1 2.64845E-14 72.95 214.15)" r="16.54"/>
  <circle class="fil1" transform="matrix(2.64845E-14 -1 1 2.64845E-14 123 214.15)" r="16.54"/>
  <circle class="fil1" transform="matrix(2.64845E-14 -1 1 2.64845E-14 173.05 214.15)" r="16.54"/>
  <circle class="fil1" transform="matrix(2.64845E-14 -1 1 2.64845E-14 72.95 91.41)" r="16.54"/>
  <circle class="fil1" transform="matrix(2.64845E-14 -1 1 2.64845E-14 123 91.41)" r="16.54"/>
  <circle class="fil1" transform="matrix(2.64845E-14 -1 1 2.64845E-14 173.05 91.41)" r="16.54"/>
  <circle class="fil1" transform="matrix(2.64845E-14 -1 1 2.64845E-14 72.95 30.04)" r="16.54"/>
  <circle class="fil1" transform="matrix(2.64845E-14 -1 1 2.64845E-14 123 30.04)" r="16.54"/>
  <circle class="fil1" transform="matrix(2.64845E-14 -1 1 2.64845E-14 173.05 30.04)" r="16.54"/>
  <circle class="fil1" transform="matrix(2.64845E-14 -1 1 2.64845E-14 72.95 619.77)" r="16.54"/>
  <circle class="fil1" transform="matrix(2.64845E-14 -1 1 2.64845E-14 123 619.77)" r="16.54"/>
  <circle class="fil1" transform="matrix(2.64845E-14 -1 1 2.64845E-14 173.05 619.77)" r="16.54"/>
  <circle class="fil1" transform="matrix(2.64845E-14 -1 1 2.64845E-14 72.95 681.16)" r="16.54"/>
  <circle class="fil1" transform="matrix(2.64845E-14 -1 1 2.64845E-14 123 681.16)" r="16.54"/>
  <circle class="fil1" transform="matrix(2.64845E-14 -1 1 2.64845E-14 173.05 681.16)" r="16.54"/>
 </g>
</svg>
