<?xml version="1.0" encoding="UTF-8"?>
<!DOCTYPE svg PUBLIC "-//W3C//DTD SVG 1.1//EN" "http://www.w3.org/Graphics/SVG/1.1/DTD/svg11.dtd">
<!-- Creator: CorelDRAW 2020 (64-Bit) -->
<svg xmlns="http://www.w3.org/2000/svg" xml:space="preserve" width="210mm" height="297mm" version="1.1" style="shape-rendering:geometricPrecision; text-rendering:geometricPrecision; image-rendering:optimizeQuality; fill-rule:evenodd; clip-rule:evenodd"
viewBox="0 0 21000 29700"
 xmlns:xlink="http://www.w3.org/1999/xlink"
 xmlns:xodm="http://www.corel.com/coreldraw/odm/2003"
 aria-hidden="true"
 focusable="false"
 data-prefix="fas"
 data-icon="arrows-alt"
 role="img">
 <defs>
  <style type="text/css">
   <![CDATA[
    .fil0 {fill:white;fill-rule:nonzero}
   ]]>
  </style>
 </defs>
 <g id="Capa_x0020_1">
  <metadata id="CorelCorpID_0Corel-Layer"/>
  <g id="_1215807376">
   <path class="fil0" d="M13336.15 19338.09l-2364.18 2364.18c-279.81,279.81 -733.41,279.81 -1013.22,0l-2364.18 -2364.18c-451.34,-451.34 -131.68,-1223.08 506.62,-1223.05l1527.3 0 -0.03 -3009.26 -3009.23 0 0 1527.3c0,638.31 -771.71,957.96 -1223.08,506.63l-2364.19 -2364.19c-279.8,-279.81 -279.8,-733.44 0,-1013.22l2364.19 -2364.18c451.34,-451.34 1223.08,-131.68 1223.08,506.62l0 1529.3 3009.23 0 0 -3009.23 -1529.33 0c-638.31,0 -957.96,-771.71 -506.63,-1223.08l2364.18 -2364.19c279.81,-279.8 733.41,-279.8 1013.22,0l2364.18 2364.19c451.34,451.34 131.68,1223.08 -506.62,1223.08l-1527.29 0 0 3009.23 3009.23 0 0 -1527.3c0,-638.31 771.71,-957.96 1223.05,-506.63l2364.19 2364.18c279.8,279.81 279.8,733.44 0,1013.22l-2364.19 2364.19c-451.34,451.34 -1223.08,131.68 -1223.05,-506.63l0 -1529.29 -3009.2 0 0 3009.23 1529.33 0c638.31,0 957.96,771.71 506.63,1223.08l-0.01 0z"/>
  </g>
 </g>
</svg>
