<?xml version="1.0" encoding="UTF-8"?>
<!DOCTYPE svg PUBLIC "-//W3C//DTD SVG 1.1//EN" "http://www.w3.org/Graphics/SVG/1.1/DTD/svg11.dtd">
<!-- Creator: CorelDRAW 2020 (64-Bit) -->
<svg xmlns="http://www.w3.org/2000/svg" xml:space="preserve" width="200mm" height="190mm" version="1.1" style="shape-rendering:geometricPrecision; text-rendering:geometricPrecision; image-rendering:optimizeQuality; fill-rule:evenodd; clip-rule:evenodd"
viewBox="0 0 20000 19000"
 xmlns:xlink="http://www.w3.org/1999/xlink"
 xmlns:xodm="http://www.corel.com/coreldraw/odm/2003">
 <defs>
  <style type="text/css">
   <![CDATA[
    .str0 {stroke:#4C4C4E;stroke-width:20;stroke-miterlimit:22.9256}
    .fil0 {fill:#4C4C4E}
   ]]>
  </style>
 </defs>
 <g id="Capa_x0020_1">
  <metadata id="CorelCorpID_0Corel-Layer"/>
  <path class="fil0 str0" d="M12398.22 18250.15c-801.94,-792.62 -1603.88,-1585.24 -2405.82,-2377.85 -801.94,792.61 -1603.88,1585.23 -2405.82,2377.85 -531.52,-503.55 -1063.03,-1007.09 -1594.55,-1510.64 969.78,-969.78 1939.58,-1939.58 2909.36,-2909.36 9.32,-382.32 18.65,-764.64 27.97,-1146.96 -2536.37,0 -5072.73,0 -7609.1,0 0,-3245.06 0,-6490.12 0,-9735.18 -345.02,0 -690.04,0 -1035.06,0 0,-727.34 0,-1454.68 0,-2182.02 6471.47,0 12942.93,0 19414.4,0 0,727.34 0,1454.68 0,2182.02 -345.02,0 -690.04,0 -1035.06,0 0,3245.06 0,6490.12 0,9735.18 -2536.37,0 -5072.73,0 -7609.1,0 0,382.32 0,764.64 0,1146.96 979.11,969.78 1958.22,1939.58 2937.33,2909.36 -531.52,503.55 -1063.03,1007.09 -1594.55,1510.64zm-8951.89 -15302.14c4364.05,0 8728.09,0 13092.14,0 0,2536.37 0,5072.73 0,7609.1 -4364.05,0 -8728.09,0 -13092.14,0 0,-2536.37 0,-5072.73 0,-7609.1z"/>
 </g>
</svg>
